<?xml version="1.0" encoding="UTF-8" standalone="no"?>
<!-- Generator: Adobe Illustrator 16.0.0, SVG Export Plug-In . SVG Version: 6.00 Build 0)  -->

<svg
   xmlns:dc="http://purl.org/dc/elements/1.1/"
   xmlns:cc="http://creativecommons.org/ns#"
   xmlns:rdf="http://www.w3.org/1999/02/22-rdf-syntax-ns#"
   xmlns:svg="http://www.w3.org/2000/svg"
   xmlns="http://www.w3.org/2000/svg"
   xmlns:sodipodi="http://sodipodi.sourceforge.net/DTD/sodipodi-0.dtd"
   xmlns:inkscape="http://www.inkscape.org/namespaces/inkscape"
   version="1.1"
   id="Layer_1"
   x="0px"
   y="0px"
   width="158.7px"
   height="52.4px"
   viewBox="0 0 158.7 52.4"
   style="enable-background:new 0 0 158.7 52.4;"
   xml:space="preserve"
   inkscape:version="0.91 r13725"
   sodipodi:docname="DSpace-logo-oulton.svg"><metadata
     id="metadata41"><rdf:RDF><cc:Work
         rdf:about=""><dc:format>image/svg+xml</dc:format><dc:type
           rdf:resource="http://purl.org/dc/dcmitype/StillImage" /><dc:title></dc:title></cc:Work></rdf:RDF></metadata><defs
     id="defs39" /><sodipodi:namedview
     pagecolor="#ffffff"
     bordercolor="#666666"
     borderopacity="1"
     objecttolerance="10"
     gridtolerance="10"
     guidetolerance="10"
     inkscape:pageopacity="0"
     inkscape:pageshadow="2"
     inkscape:window-width="1855"
     inkscape:window-height="1056"
     id="namedview37"
     showgrid="false"
     inkscape:zoom="1.8777568"
     inkscape:cx="79.349998"
     inkscape:cy="26.200001"
     inkscape:window-x="65"
     inkscape:window-y="24"
     inkscape:window-maximized="1"
     inkscape:current-layer="Layer_1" /><style
     type="text/css"
     id="style3"><![CDATA[
	.st0{fill:#FFFFFF;stroke:#808285;stroke-width:1.0563;}
	.st1{fill:#808285;}
	.st2{fill:#C0D028;}
	.st3{fill:#FFFFFF;stroke:#808285;stroke-width:0.4225;}
	.st4{fill:#FFFFFF;stroke:#808285;stroke-width:0.6338;}
	.st5{fill:#FFFFFF;stroke:#808285;stroke-width:0.6761;}
	.st6{fill:#FFFFFF;stroke:#808285;stroke-width:0.8451;}
]]></style><g
     transform="matrix(1.5065493,0,0,1.6347255,-100.96847,-16.275488)"
     id="g3057"
     style="stroke:#0055a6;stroke-opacity:1"><title
       id="title3059">Layer 1</title><path
       style="fill:#0055a6;fill-opacity:1;fill-rule:evenodd;stroke:#0055a6;stroke-width:0.05731512px;stroke-linecap:butt;stroke-linejoin:miter;stroke-opacity:1"
       d="m 88.917106,14.926988 c -2.65206,0.235403 -5.101786,0.603337 -7.568249,1.071623 -2.369908,0.512542 -4.321832,1.27759 -6.222658,2.115156 -1.601133,0.81859 -2.75488,1.755533 -3.799904,2.721245 -1.17487,1.181639 -1.804914,2.761946 -2.021089,4.520983 -0.195813,1.419608 0.160116,2.865876 0.949975,4.409658 0.506085,0.933811 1.191222,1.55497 1.861697,2.201738 1.198743,1.030172 2.439644,1.839508 3.723396,2.42439 2.372253,1.059375 4.777007,1.835008 7.217266,2.300688 1.902476,0.362956 3.810843,0.697333 5.76361,0.816373 l -0.07652,-3.809748 c -3.239041,-0.13287 -6.485983,-0.625859 -9.742028,-1.533793 -1.575462,-0.452659 -3.125228,-1.049888 -4.61599,-1.97909 -0.796097,-0.7661 -1.322289,-0.753993 -2.307995,-2.783094 -0.256143,-0.863481 -0.371364,-1.79921 0.146641,-3.1851 0.308334,-0.446281 0.34941,-1.1289 3.053949,-2.863488 1.402631,-0.600198 2.806099,-1.199855 4.590487,-1.558534 1.600967,-0.365893 3.329876,-0.672994 5.253557,-0.890591 1.106488,-0.149255 2.527818,-0.229101 4.003924,-0.296863 l -0.0074,-3.672809 z"
       id="path3726"
       inkscape:connector-curvature="0"
       sodipodi:nodetypes="ccccccccccccccccccccc" /><path
       style="fill:#0055a6;fill-opacity:1;fill-rule:evenodd;stroke:#0055a6;stroke-width:0.05731512px;stroke-linecap:butt;stroke-linejoin:miter;stroke-opacity:1"
       d="m 91.576398,37.493795 c 2.65206,-0.2354 5.10178,-0.60333 7.568247,-1.07162 2.369915,-0.51254 4.321835,-1.27759 6.222665,-2.11515 1.60113,-0.81859 2.75488,-1.75554 3.7999,-2.72125 1.17487,-1.18164 1.80491,-2.76195 2.02109,-4.520983 0.19581,-1.419608 -0.16012,-2.865876 -0.94998,-4.409658 -0.50608,-0.933811 -1.19122,-1.55497 -1.86169,-2.201738 -1.19875,-1.030172 -2.43965,-1.839508 -3.7234,-2.42439 -2.37225,-1.059375 -4.777009,-1.835008 -7.217272,-2.300688 -1.90247,-0.362956 -3.81084,-0.697333 -5.76361,-0.816373 l 0.0765,3.809748 c 3.23905,0.13287 6.48599,0.625859 9.742032,1.533793 1.57547,0.452659 3.12523,1.049888 4.61599,1.97909 0.7961,0.7661 1.32229,0.753993 2.308,2.783094 0.25614,0.863481 0.37136,1.79921 -0.14664,3.1851 -0.30834,0.446281 -0.34941,1.128905 -3.05395,2.863485 -1.40263,0.6002 -2.8061,1.19986 -4.59049,1.55854 -1.600969,0.36589 -3.329882,0.67299 -5.253562,0.89059 -1.10648,0.14925 -2.52781,0.2291 -4.00392,0.29686 l 0.007,3.67281 z"
       id="path3726-6"
       inkscape:connector-curvature="0"
       sodipodi:nodetypes="ccccccccccccccccccccc" /><path
       style="fill:#0055a6;fill-opacity:1;fill-rule:evenodd;stroke:#0055a6;stroke-width:0.05682609px;stroke-linecap:butt;stroke-linejoin:miter;stroke-opacity:1"
       d="m 85.916502,20.312375 0.0043,2.488294 2.447128,0.01774 0.02503,8.859037 3.485489,-0.03763 0.05093,-8.81697 2.346901,0.01091 0.01236,-2.530803 -8.361455,0.0094 z"
       id="path5098"
       inkscape:connector-curvature="0"
       sodipodi:nodetypes="cccccccccc" /></g><text
     xml:space="preserve"
     style="font-style:italic;font-variant:normal;font-weight:normal;font-stretch:normal;font-size:26.86319351px;line-height:100%;font-family:'Bitstream Charter';-inkscape-font-specification:'Bitstream Charter, Italic';text-align:start;letter-spacing:0px;word-spacing:0px;writing-mode:lr-tb;text-anchor:start;opacity:0.95;fill:#0055a6;fill-opacity:1;stroke:none;stroke-width:1px;stroke-linecap:butt;stroke-linejoin:miter;stroke-opacity:1"
     x="85.432999"
     y="29.889801"
     id="text5143"
     sodipodi:linespacing="100%"
     transform="scale(0.81259984,1.230618)"><tspan
       sodipodi:role="line"
       id="tspan5147"
       x="85.432999"
       y="29.889801">OULTON </tspan></text>
</svg>